<svg xmlns="http://www.w3.org/2000/svg" width="190" height="190" viewBox="0 0 190 190" fill="none"><path fill-rule="evenodd" clip-rule="evenodd" d="M95 3.91753C44.6965 3.91753 3.91753 44.6965 3.91753 95C3.91753 145.303 44.6965 186.082 95 186.082C145.303 186.082 186.082 145.303 186.082 95C186.082 44.6965 145.303 3.91753 95 3.91753ZM0 95C0 42.5329 42.5329 0 95 0C147.467 0 190 42.5329 190 95C190 147.467 147.467 190 95 190C42.5329 190 0 147.467 0 95Z" fill="#FF8989"></path><path fill-rule="evenodd" clip-rule="evenodd" d="M95 186.082C145.303 186.082 186.082 145.303 186.082 95H190C190 147.467 147.467 190 95 190V186.082Z" fill="#60B8AD"></path><path fill-rule="evenodd" clip-rule="evenodd" d="M3.91753 95C3.91753 145.303 44.6965 186.082 95 186.082V190C42.5329 190 0 147.467 0 95H3.91753Z" fill="#519ED0"></path><path fill-rule="evenodd" clip-rule="evenodd" d="M186.082 95C186.082 44.6965 145.303 3.91753 95 3.91753V0C147.467 0 190 42.5329 190 95H186.082Z" fill="#F5D660"></path></svg>