<svg xmlns="http://www.w3.org/2000/svg" width="190" height="190" viewBox="0 0 190 190" fill="none"><path d="M104.01 93.4972H59.2656V51H130.985V93.4972H125.928" stroke="#FF8989" stroke-width="2.59997" stroke-linejoin="round"></path><path d="M115.227 72.8658C112.185 72.8658 109.715 70.3958 109.715 67.3538C109.715 64.3118 112.185 61.8418 115.227 61.8418C118.269 61.8418 120.739 64.3118 120.739 67.3538C120.739 70.3958 118.269 72.8658 115.227 72.8658Z" stroke="#FF8989" stroke-width="2.59997" stroke-linejoin="round"></path><path d="M109.251 95.7074V92.1454C107.99 91.4694 107.184 90.1954 107.184 88.7784V81.1604C107.184 78.9894 108.653 76.8183 111.435 76.5063L115.243 78.8724L119.039 76.5063C121.938 76.8313 123.29 79.0284 123.29 81.0954V88.7784C123.29 90.2084 122.471 91.4694 121.223 92.1454V103.585" stroke="#FF8989" stroke-width="2.59997" stroke-linejoin="round"></path><path d="M81.1572 113.842C85.2521 113.842 88.567 110.527 88.567 106.432C88.567 102.337 85.2521 99.0088 81.1572 99.0088C77.0623 99.0088 73.7344 102.324 73.7344 106.432C73.7344 110.54 77.0493 113.842 81.1572 113.842Z" stroke="#FF8989" stroke-width="2.59997" stroke-linejoin="round"></path><path d="M109.433 113.842C113.528 113.842 116.856 110.527 116.856 106.432C116.856 102.337 113.541 99.0088 109.433 99.0088C105.325 99.0088 102.023 102.324 102.023 106.432C102.023 110.54 105.338 113.842 109.433 113.842Z" stroke="#FF8989" stroke-width="2.59997" stroke-linejoin="round"></path><path d="M107.791 139.036C107.791 132.029 102.11 129.507 95.1161 129.507C88.1223 129.507 82.4414 132.042 82.4414 139.036" stroke="#FF8989" stroke-width="2.59997" stroke-linejoin="round"></path><path d="M95.1168 125.282C99.2117 125.282 102.527 121.967 102.527 117.872C102.527 113.777 99.2117 110.449 95.1168 110.449C91.0219 110.449 87.707 113.764 87.707 117.872C87.707 121.98 91.0219 125.282 95.1168 125.282Z" stroke="#FF8989" stroke-width="2.59997" stroke-linejoin="round"></path><path d="M136.24 139.036C136.24 132.029 130.572 129.507 123.565 129.507C116.558 129.507 110.891 132.042 110.891 139.036" stroke="#FF8989" stroke-width="2.59997" stroke-linejoin="round"></path><path d="M123.574 125.282C127.669 125.282 130.984 121.967 130.984 117.872C130.984 113.777 127.669 110.449 123.574 110.449C119.479 110.449 116.164 113.764 116.164 117.872C116.164 121.98 119.479 125.282 123.574 125.282Z" stroke="#FF8989" stroke-width="2.59997" stroke-linejoin="round"></path><path d="M79.3493 139.036C79.3493 132.029 73.6685 129.507 66.6747 129.507C59.6808 129.507 54 132.042 54 139.036" stroke="#FF8989" stroke-width="2.59997" stroke-linejoin="round"></path><path d="M66.6754 110.462C62.5805 110.462 59.2656 113.777 59.2656 117.885C59.2656 121.993 62.5805 125.295 66.6754 125.295C70.7703 125.295 74.0982 121.98 74.0982 117.885C74.0982 113.79 70.7833 110.462 66.6754 110.462Z" stroke="#FF8989" stroke-width="2.59997" stroke-linejoin="round"></path><path d="M87.8367 119.263C85.8998 118.548 83.6118 118.249 81.1549 118.249C78.4639 118.249 75.968 118.626 73.9141 119.484" stroke="#FF8989" stroke-width="2.59997" stroke-linejoin="round"></path><path d="M116.462 119.263C114.525 118.548 112.224 118.249 109.78 118.249C107.089 118.249 104.593 118.626 102.539 119.484" stroke="#FF8989" stroke-width="2.59997" stroke-linejoin="round"></path></svg>