<svg xmlns="http://www.w3.org/2000/svg" width="190" height="190" viewBox="0 0 190 190" fill="none"><path d="M78.6066 86.463C74.4076 89.232 72.1717 93.171 71.2227 97.396M118.257 97.383C117.295 93.184 115.033 89.258 110.86 86.489M112.94 70.187C112.94 60.151 104.802 52 94.7527 52C84.7037 52 76.5657 60.138 76.5657 70.187C76.5657 80.236 84.7037 88.374 94.7527 88.374C104.802 88.374 112.94 80.236 112.94 70.187Z" stroke="#FF8989" stroke-width="2.6" stroke-linecap="round" stroke-linejoin="round"></path><path d="M112.968 138.905V126.932M76.5156 126.906V138.905" stroke="#FF8989" stroke-width="2.6" stroke-linejoin="round"></path><path d="M118.742 114.843L111.579 110.839C108.823 109.331 105.261 110.514 103.532 113.413C101.803 116.312 102.466 120.004 105.105 121.72L123.149 133.706C126.672 135.994 131.404 135.084 133.458 131.509C134.745 129.286 134.719 126.153 133.718 124.229C132.197 121.304 129.896 117.313 127.075 113.283C124.774 109.981 122.174 106.64 119.496 103.741C117.351 101.466 112.957 97.9295 108.914 96.4605C104.728 94.9005 99.8917 94.0815 94.7437 94.0815C80.4827 94.0815 73.3977 100.387 69.8747 103.806C67.0927 106.77 64.8047 109.786 62.4127 113.205C59.5787 117.274 57.2647 121.291 55.7307 124.229C54.6387 126.322 54.8077 129.585 55.9907 131.509C58.1617 135.006 62.7767 135.994 66.2997 133.706L84.3437 121.72C86.9827 120.004 87.6457 116.312 85.9167 113.413C84.1877 110.514 80.6257 109.331 77.8697 110.839L70.7067 114.843M74.9317 99.7755C74.9317 99.7755 76.3877 105.184 77.0377 111.307M81.1197 96.4215C81.1197 96.4215 83.1087 103.403 83.9017 111.125M114.595 99.5415C114.595 99.5415 113.139 105.197 112.489 111.307M108.407 96.4215C108.407 96.4215 106.418 103.403 105.612 111.125" stroke="#FF8989" stroke-width="2.6" stroke-linecap="round" stroke-linejoin="round"></path></svg>