<svg xmlns="http://www.w3.org/2000/svg" width="190" height="190" viewBox="0 0 190 190" fill="none"><path d="M94.8283 55C88.1853 55 82.7383 60.434 82.7383 67.09V99.317C82.7383 105.96 88.1723 111.407 94.8283 111.407C101.484 111.407 106.918 105.973 106.918 99.317V67.09C106.918 60.447 101.484 55 94.8283 55Z" stroke="#FF8989" stroke-width="2.6" stroke-linecap="round" stroke-linejoin="round"></path><path d="M74.6758 95.2871V98.7451C74.6758 110.146 83.7368 119.467 94.8128 119.467C105.889 119.467 114.95 110.146 114.95 98.7451V95.2871" stroke="#FF8989" stroke-width="2.6" stroke-linecap="round" stroke-linejoin="round"></path><path d="M94.8242 119.454V135.574" stroke="#FF8989" stroke-width="2.6" stroke-linecap="round" stroke-linejoin="round"></path><path d="M84.75 135.574H104.887" stroke="#FF8989" stroke-width="2.6" stroke-linecap="round" stroke-linejoin="round"></path><path d="M64.6922 85.8222C59.3232 91.1912 59.3232 99.9012 64.6922 105.27M57.2693 80.4272C48.9102 88.7862 48.9102 102.319 57.2693 110.678M125.532 85.8222C130.901 91.1912 130.901 99.9012 125.532 105.27M132.942 80.4272C141.301 88.7862 141.301 102.319 132.942 110.678" stroke="#FF8989" stroke-width="2.6" stroke-miterlimit="10" stroke-linecap="round"></path></svg>