<svg xmlns="http://www.w3.org/2000/svg" width="190" height="190" viewBox="0 0 190 190" fill="none"><path d="M114.689 82.4087V140.011H75.0781V82.4087" stroke="#FF8989" stroke-width="2.59999" stroke-linejoin="round"></path><path d="M114.691 99.5815H136.206V140.011H114.691" stroke="#FF8989" stroke-width="2.59999" stroke-linejoin="round"></path><path d="M116.589 99.5815H141.77L132.488 88.5186H114.691" stroke="#FF8989" stroke-width="2.59999" stroke-linejoin="round"></path><path d="M72.2422 82.1356H117.521L94.8752 62.9478L72.2422 82.1356Z" stroke="#FF8989" stroke-width="2.59999" stroke-linejoin="round"></path><path d="M110.477 60.3479V50H119.343C117.016 52.249 117.016 53.848 119.343 56.097H110.477" stroke="#FF8989" stroke-width="2.59999" stroke-linejoin="round"></path><path d="M48 140.012H141.769" stroke="#FF8989" stroke-width="2.59999" stroke-linejoin="round"></path><path d="M102.495 140.011H87.2852V125.633C87.2852 121.434 90.6912 118.028 94.8902 118.028C99.0892 118.028 102.495 121.434 102.495 125.633V140.011Z" stroke="#FF8989" stroke-width="2.59999" stroke-linejoin="round"></path><path d="M75.2894 99.5811H53.5664V140.011H75.0815" stroke="#FF8989" stroke-width="2.59999" stroke-linejoin="round"></path><path d="M75.079 99.5815H48L57.282 88.5186H75.079" stroke="#FF8989" stroke-width="2.59999" stroke-linejoin="round"></path><path d="M67.2289 115H61.418V109.189H67.2289V115Z" stroke="#FF8989" stroke-width="2.59999" stroke-linejoin="round"></path><path d="M67.2289 130.405H61.418V124.594H67.2289V130.405Z" stroke="#FF8989" stroke-width="2.59999" stroke-linejoin="round"></path><path d="M118.734 88.5186H114.691" stroke="#FF8989" stroke-width="2.59999" stroke-linejoin="round"></path><path d="M128.35 115H122.539V109.189H128.35V115Z" stroke="#FF8989" stroke-width="2.59999" stroke-linejoin="round"></path><path d="M128.35 130.405H122.539V124.594H128.35V130.405Z" stroke="#FF8989" stroke-width="2.59999" stroke-linejoin="round"></path><path d="M88.1406 97.3456C88.1406 93.6276 91.1566 90.5986 94.8746 90.5986C98.5926 90.5986 101.622 93.6146 101.622 97.3456C101.622 101.077 98.6056 104.093 94.8746 104.093C91.1436 104.093 88.1406 101.077 88.1406 97.3456Z" stroke="#FF8989" stroke-width="2.59999" stroke-linejoin="round"></path></svg>