<svg xmlns="http://www.w3.org/2000/svg" width="190" height="190" viewBox="0 0 190 190" fill="none"><path d="M95.3077 122.954C90.9396 122.954 87.3906 119.405 87.3906 115.037V99.2027C87.3906 94.8347 90.9396 91.2856 95.3077 91.2856C99.6757 91.2856 103.225 94.8347 103.225 99.2027V115.037C103.225 119.405 99.6757 122.954 95.3077 122.954Z" stroke="#FF8989" stroke-width="2.60001" stroke-linecap="round" stroke-linejoin="round"></path><path d="M81.8398 108.472V115.739C81.8398 123.175 87.8719 129.207 95.3079 129.207C102.744 129.207 108.776 123.175 108.776 115.739V108.472" stroke="#FF8989" stroke-width="2.60001" stroke-linecap="round" stroke-linejoin="round"></path><path d="M95.3086 129.22V137.488" stroke="#FF8989" stroke-width="2.60001" stroke-linecap="round" stroke-linejoin="round"></path><path d="M88.3164 137.488H102.317" stroke="#FF8989" stroke-width="2.60001" stroke-linecap="round" stroke-linejoin="round"></path><path d="M138.808 111.02V55.3797C138.808 53.5207 137.014 52.0127 134.791 52.0127H111.456C104.358 52.0127 98.2215 55.4707 95.3095 60.5017C94.4125 58.9807 93.2425 57.6027 91.8385 56.4197C88.6015 53.7027 84.1164 52.0127 79.1634 52.0127H55.8412C53.6312 52.0127 51.8242 53.5207 51.8242 55.3797V111.02C51.8242 112.879 53.6182 114.387 55.8412 114.387" stroke="#FF8989" stroke-width="2.60001" stroke-linecap="round" stroke-linejoin="round"></path><path d="M120.126 114.388H134.777C137.013 114.388 138.781 112.867 138.781 111.021V56.9146H140.055C142.564 56.9146 144.592 58.6306 144.592 60.7366V116C144.592 118.106 142.564 119.809 140.055 119.809H119.801" stroke="#FF8989" stroke-width="2.60001" stroke-linecap="round" stroke-linejoin="round"></path><path d="M70.4922 114.388H55.8281C53.618 114.388 51.811 112.867 51.811 111.021V56.9146H50.537C48.041 56.9146 46 58.6306 46 60.7366V115.987C46 118.093 48.054 119.809 50.563 119.809H70.8042" stroke="#FF8989" stroke-width="2.60001" stroke-linecap="round" stroke-linejoin="round"></path><path d="M127.054 73.034L122.66 69.251L118.266 73.034V52H127.054V73.034Z" stroke="#FF8989" stroke-width="2.60001" stroke-linecap="round" stroke-linejoin="round"></path></svg>