<svg xmlns="http://www.w3.org/2000/svg" width="190" height="190" viewBox="0 0 190 190" fill="none"><path d="M118.555 91.563L118.557 91.5639C121.044 93.0204 124.185 92.1994 125.661 89.7841C127.162 87.3287 126.301 84.168 123.866 82.7153L123.858 82.7106C115.905 78.0421 105.73 75.5246 95.7359 74.7184C85.7395 73.912 75.7976 74.8074 68.2628 77.0718C65.4971 77.893 63.9546 80.7768 64.7916 83.4931C65.6304 86.2498 68.5495 87.7431 71.2619 86.9263C77.47 85.0648 86.0305 84.2895 94.7158 84.9651C103.406 85.6412 112.076 87.7588 118.555 91.563ZM119.867 102.773L119.858 102.766C121.146 100.642 120.45 97.8795 118.329 96.5926C105.17 88.5808 85.9964 86.3573 70.5501 90.9775L70.5463 90.9787C68.1656 91.6987 66.7954 94.2392 67.5316 96.615C68.2677 98.9907 70.8381 100.314 73.2057 99.5981L72.8294 98.3539L73.2029 99.5989C86.1136 95.7255 102.752 97.6804 113.617 104.26C115.748 105.553 118.553 104.888 119.867 102.773ZM73.8394 111.439L73.8421 111.438C88.1044 108.236 100.008 109.585 109.418 115.252C111.04 116.254 113.062 115.881 114.293 114.587H114.433L114.812 113.962C115.917 112.143 115.329 109.778 113.52 108.655L113.514 108.651L113.507 108.647C102.159 101.785 88.2052 100.252 72.1256 103.902L72.1136 103.904L72.1016 103.907C70.0513 104.414 68.7296 106.455 69.2045 108.541C69.6801 110.629 71.7756 111.898 73.8394 111.439ZM54.3 95.1C54.3 73.125 72.3191 55.3 94.6 55.3C116.881 55.3 134.9 73.125 134.9 95.1C134.9 117.075 116.881 134.9 94.6 134.9C72.3191 134.9 54.3 117.075 54.3 95.1Z" stroke="#FF8989" stroke-width="2.6"></path></svg>