<svg xmlns="http://www.w3.org/2000/svg" width="305" height="255" viewBox="0 0 305 255" fill="none"><path d="M30.2844 164.687L30.2661 164.687C39.5689 172.161 45.5453 183.051 46.8613 194.932C50.5714 228.721 79.0829 255 113.699 255C132.286 255 149.101 247.434 161.273 235.204C170.21 226.224 182.327 221.174 194.957 221.174C255.726 221.174 305 171.665 305 110.587C305 49.5089 255.726 3.50236e-05 194.938 2.96998e-05C173.701 2.78398e-05 153.871 6.06008 137.056 16.5275C125.688 23.5792 111.981 25.8195 98.9861 22.7344C93.0462 21.3387 86.8688 20.5674 80.5085 20.5674C36.0415 20.5674 3.97346e-05 56.7809 3.58357e-05 101.46C3.36034e-05 127.041 11.825 149.83 30.2844 164.65L30.2844 164.687Z" fill="white"></path></svg>