<svg xmlns="http://www.w3.org/2000/svg" width="292" height="217" viewBox="0 0 292 217" fill="none"><path d="M273.47 121.038C284.978 108.183 292 91.21 292 72.5937C292 32.4971 259.539 0 219.488 0C208.126 0 197.365 2.61994 187.791 7.29028C173.487 14.0598 157.118 14.9386 142.18 9.76378C131.046 5.80945 119.05 3.62886 106.566 3.62886C47.7076 3.62886 0 51.39 0 110.314C0 169.239 47.7076 217 106.566 217C122.512 217 137.629 213.469 151.218 207.171C163.23 201.622 176.949 201.053 189.384 205.56C195.317 207.773 201.737 209.01 208.434 209.01C238.489 209.01 262.855 184.617 262.855 154.528C262.855 153.535 262.823 152.543 262.774 151.55C262.156 140.354 266.009 129.386 273.486 121.038H273.47Z" fill="white"></path></svg>