<svg xmlns="http://www.w3.org/2000/svg" width="494" height="430" viewBox="0 0 494 430" fill="none"><path d="M15.0516 243.271C1.00665 270.256 -3.54984 302.274 4.63466 333.99C22.2628 402.303 92.1073 443.332 160.657 425.642C180.103 420.624 197.369 411.408 211.702 399.222C233.207 381.372 260.836 372.645 288.678 374.864C309.474 376.683 330.964 375.1 352.33 369.586C453.068 343.591 513.723 241.15 487.818 140.76C461.912 40.3708 359.261 -19.9292 258.523 6.0664C231.231 13.1091 206.911 25.8019 186.422 42.5329C168.302 57.2922 145.072 64.3217 121.808 62.1341C110.68 60.984 99.1473 61.7127 87.6853 64.6705C36.2452 77.9447 5.26663 130.265 18.4949 181.527C18.9313 183.218 19.4233 184.895 19.9432 186.564C25.9225 205.366 24.1511 225.754 15.0238 243.278L15.0516 243.271Z" fill="white"></path></svg>